<?xml version="1.0" encoding="UTF-8"?>
<svg width="960px" height="400px" viewBox="0 0 960 400" version="1.1" xmlns="http://www.w3.org/2000/svg" xmlns:xlink="http://www.w3.org/1999/xlink">
    <!-- Generator: Sketch 52.4 (67378) - http://www.bohemiancoding.com/sketch -->
    <title>unicore-min</title>
    <desc>Created with Sketch.</desc>
    <defs>
        <rect id="path-1" x="0" y="0" width="380" height="213" rx="16"></rect>
        <rect id="path-2" x="0" y="0" width="266" height="60" rx="16"></rect>
        <rect id="path-3" x="0" y="0" width="266" height="60" rx="16"></rect>
        <rect id="path-4" x="0" y="0" width="266" height="60" rx="16"></rect>
        <rect id="path-5" x="0" y="0" width="266" height="60" rx="16"></rect>
        <linearGradient x1="50%" y1="0%" x2="50%" y2="100%" id="linearGradient-6">
            <stop stop-color="#E16B56" offset="0%"></stop>
            <stop stop-color="#8E44AD" offset="100%"></stop>
        </linearGradient>
    </defs>
    <g id="The-Unicore" stroke="none" stroke-width="1" fill="none" fill-rule="evenodd">
        <g id="The-Unicore-V1" transform="translate(-805.000000, -159.000000)">
            <g id="Group-2" transform="translate(877.000000, 202.000000)">
                <g id="L/Nodes/Core" transform="translate(0.000000, 102.000000)">
                    <g id="Rectangle-Copy" stroke-width="3">
                        <rect stroke="#FFFFFF" stroke-linejoin="square" fill="#E74C3C" fill-rule="evenodd" x="1.5" y="1.5" width="377" height="210" rx="16"></rect>
                        <use stroke="#C0392B" xlink:href="#path-1"></use>
                    </g>
                    <text id="CORE" font-family="Helvetica" font-size="24" font-weight="normal" fill="#FFFFFF">
                        <tspan x="15" y="37">CORE</tspan>
                    </text>
                </g>
                <g id="Group" transform="translate(95.000000, 118.000000)">
                    <g id="L/Nodes/Reducer" transform="translate(0.000000, 121.000000)">
                        <g id="Rectangle-Copy-3" stroke-width="3">
                            <rect stroke="#FFFFFF" stroke-linejoin="square" fill="#9B59B6" fill-rule="evenodd" x="1.5" y="1.5" width="263" height="57" rx="16"></rect>
                            <use stroke="#8E44AD" xlink:href="#path-2"></use>
                        </g>
                        <text id="Reducer" font-family="Helvetica" font-size="24" font-weight="normal" fill="#FFFFFF">
                            <tspan x="60" y="40">REDUCER</tspan>
                        </text>
                        <g id="L/Icons/Reducer" fill-rule="evenodd" stroke-width="1">
                            <g id="Group-2" transform="translate(10.000000, 10.000000)">
                                <rect id="Rectangle-path" x="0" y="0" width="40" height="40"></rect>
                                <path d="M39.2,22.3632 L39.2,17.5632 L33.4872,16.6296 C33.1488,15.276 32.6176,14.0048 31.9176,12.8392 L35.2472,8.0936 L31.8528,4.7008 L27.168,8.0688 C26,7.3616 24.72,6.8224 23.3576,6.4832 L22.3616,0.7984 L17.5616,0.7984 L16.6368,6.4648 C15.2736,6.7992 13.9864,7.3312 12.8152,8.0352 L8.144,4.6984 L4.7496,8.0912 L8.0352,12.7904 C7.3248,13.9664 6.7848,15.252 6.4416,16.624 L0.8,17.5632 L0.8,22.3632 L6.4352,23.3624 C6.7752,24.732 7.316,26.0168 8.0288,27.1952 L4.6984,31.8536 L8.0912,35.2504 L12.796,31.9552 C13.9704,32.6608 15.2544,33.1968 16.6176,33.5336 L17.5616,39.2032 L22.3616,39.2032 L23.3704,33.5184 C24.7264,33.1752 26.008,32.6352 27.1712,31.9264 L31.9088,35.2512 L35.3024,31.8544 L31.9208,27.1584 C32.6208,25.9928 33.152,24.7208 33.4872,23.3664 L39.2,22.3632 Z M20,26.4 C16.4656,26.4 13.6,23.5336 13.6,20 C13.6,16.4664 16.4656,13.6 20,13.6 C23.5344,13.6 26.4,16.4664 26.4,20 C26.4,23.5336 23.5344,26.4 20,26.4 Z" id="Shape" fill="#FFFFFF"></path>
                            </g>
                        </g>
                    </g>
                    <g id="L/Nodes/State">
                        <g id="Rectangle-Copy-3" stroke-width="3">
                            <rect stroke="#FFFFFF" stroke-linejoin="square" fill="#F39C12" fill-rule="evenodd" x="1.5" y="1.5" width="263" height="57" rx="16"></rect>
                            <use stroke="#E67E22" xlink:href="#path-3"></use>
                        </g>
                        <text id="State" font-family="Helvetica" font-size="24" font-weight="normal" fill="#FFFFFF">
                            <tspan x="60" y="40">STATE</tspan>
                        </text>
                        <g id="L/Icons/State" fill-rule="evenodd" stroke-width="1">
                            <g id="Group-5" transform="translate(10.000000, 10.000000)">
                                <rect id="Rectangle-path" x="0" y="0" width="40" height="40"></rect>
                                <path d="M5.6,25.6 L5.6,15.2 L34.4,15.2 L34.4,25.6 L5.6,25.6 Z M5.6,27.2 L34.4,27.2 L34.4,34.4 C34.4,36.1672 32.9672,37.6 31.2,37.6 L8.8,37.6 C7.0328,37.6 5.6,36.1672 5.6,34.4 L5.6,27.2 Z M5.6,13.6 L5.6,6.4 C5.6,4.6328 7.0328,3.2 8.8,3.2 L31.2,3.2 C32.9672,3.2 34.4,4.6328 34.4,6.4 L34.4,13.6 L5.6,13.6 Z M15.2,8 C15.2,9.37285326 16.0559556,10.4 17.6,10.4 L22.4,10.4 C23.9341821,10.4 24.8,9.36762568 24.8,8 C24.8,7.5581722 24.4418278,7.2 24,7.2 C23.5581722,7.2 23.2,7.5581722 23.2,8 C23.2,8.54016446 22.9820846,8.8 22.4,8.8 L17.6,8.8 C17.0107111,8.8 16.8,8.54714674 16.8,8 C16.8,7.5581722 16.4418278,7.2 16,7.2 C15.5581722,7.2 15.2,7.5581722 15.2,8 Z M15.2,20.8 C15.2,22.1728533 16.0559556,23.2 17.6,23.2 L22.4,23.2 C23.9341821,23.2 24.8,22.1676257 24.8,20.8 C24.8,20.3581722 24.4418278,20 24,20 C23.5581722,20 23.2,20.3581722 23.2,20.8 C23.2,21.3401645 22.9820846,21.6 22.4,21.6 L17.6,21.6 C17.0107111,21.6 16.8,21.3471467 16.8,20.8 C16.8,20.3581722 16.4418278,20 16,20 C15.5581722,20 15.2,20.3581722 15.2,20.8 Z M15.2,32 C15.2,33.3728533 16.0559556,34.4 17.6,34.4 L22.4,34.4 C23.9341821,34.4 24.8,33.3676257 24.8,32 C24.8,31.5581722 24.4418278,31.2 24,31.2 C23.5581722,31.2 23.2,31.5581722 23.2,32 C23.2,32.5401645 22.9820846,32.8 22.4,32.8 L17.6,32.8 C17.0107111,32.8 16.8,32.5471467 16.8,32 C16.8,31.5581722 16.4418278,31.2 16,31.2 C15.5581722,31.2 15.2,31.5581722 15.2,32 Z" id="Combined-Shape" fill="#FFFFFF"></path>
                            </g>
                        </g>
                    </g>
                </g>
                <g id="L/Nodes/Middleware" transform="translate(551.000000, 239.000000)">
                    <g id="Rectangle-Copy-3" stroke-width="3">
                        <rect stroke="#FFFFFF" stroke-linejoin="square" fill="#3498DB" fill-rule="evenodd" x="1.5" y="1.5" width="263" height="57" rx="16"></rect>
                        <use stroke="#2980B9" xlink:href="#path-4"></use>
                    </g>
                    <text id="Middleware" font-family="Helvetica" font-size="24" font-weight="normal" fill="#FFFFFF">
                        <tspan x="60" y="40">MIDDLEWARE</tspan>
                    </text>
                    <g id="L/Icons/Component" fill-rule="evenodd" stroke-width="1">
                        <g id="Group-4" transform="translate(10.000000, 10.000000)">
                            <rect id="Rectangle-path" x="0" y="0" width="40" height="40"></rect>
                            <path d="M36,13.9104 C36,12.7 35.2544,12.2184 34.36,11.952 C34.36,11.952 28.3112,12.5504 26.1592,12.8008 C24.4616,12.9976 23.5712,11.7008 24.9072,9.5728 C25.7992,8.1512 26.1592,7.6224 26.1592,6.4008 C26.1592,3.7496 23.9568,1.6008 21.2392,1.6008 C18.5208,1.6008 16.3184,3.7496 16.3184,6.4008 C16.3184,7.604 16.736,8.4272 17.5488,9.576 C19.0864,11.7512 18.164,12.9264 16.3184,12.8008 C14.2984,12.664 8.1176,11.952 8.1176,11.952 C7.0408,11.7752 6.6056,12.6752 6.4776,13.86 C6.4776,13.86 6.144,15.2304 5.6224,22.1664 C5.5808,22.3256 5.6184,22.504 5.632,22.576 C5.9144,24.0256 7.416,23.1264 8.9672,22.0256 C9.9664,21.3176 11.012,20.8008 12.248,20.8008 C14.9664,20.8008 17.1688,22.9496 17.1688,25.6008 C17.1688,28.252 14.9664,30.4008 12.248,30.4008 C10.9416,30.4008 10.0368,29.9944 8.8808,29.0848 C7.724,28.1752 6.1448,27.1752 5.6832,28.3008 C5.6016,28.5008 5.5808,28.9008 5.6224,29.1584 C6.1016,34.1504 6.2912,34.388 6.4776,35.2008 C6.664,36.0136 7.212,36.8008 8.1176,36.8008 L33.7456,36.8008 C35.2064,36.8008 36.0008,35.9256 36.0008,34.6008 C36,33.9 36,15.12 36,13.9104 Z" id="Shape" fill="#FFFFFF"></path>
                        </g>
                    </g>
                </g>
                <g id="L/Nodes/Subscriber" transform="translate(551.000000, 118.000000)">
                    <g id="Rectangle-Copy-3" stroke-width="3">
                        <rect stroke="#FFFFFF" stroke-linejoin="square" fill="#1BBC9C" fill-rule="evenodd" x="1.5" y="1.5" width="263" height="57" rx="16"></rect>
                        <use stroke="#16A085" xlink:href="#path-5"></use>
                    </g>
                    <text id="Subscriber" font-family="Helvetica" font-size="24" font-weight="normal" fill="#FFFFFF">
                        <tspan x="60" y="40">SUBSCRIBER</tspan>
                    </text>
                    <g id="L/Icons/Subscriber" fill-rule="evenodd" stroke-width="1">
                        <g id="Group-3" transform="translate(10.000000, 10.000000)">
                            <rect id="Rectangle-path" x="0" y="0" width="40" height="40"></rect>
                            <g id="Group" transform="translate(3.200000, 8.800000)" fill="#FFFFFF">
                                <path d="M16.8,16.0008 C14.6072,16.0008 12.6632,16.9952 11.3328,18.5352 L16.8,24.0008 L22.2672,18.5352 C20.936,16.9952 18.9928,16.0008 16.8,16.0008 Z" id="Shape"></path>
                                <path d="M16.8,0 C10.1872,0 4.2336,2.7712 0,7.2008 L2.9856,10.1864 C6.456,6.5208 11.3536,4.2208 16.8,4.2208 C22.2464,4.2208 27.1448,6.5208 30.6144,10.1864 L33.6,7.2008 C29.3656,2.7712 23.4128,0 16.8,0 Z" id="Shape"></path>
                                <path d="M16.8,7.892 C12.3672,7.892 8.3864,9.78 5.5832,12.7824 L8.752,15.9512 C10.7416,13.7592 13.6064,12.3728 16.8008,12.3728 C19.9952,12.3728 22.86,13.7592 24.8496,15.9512 L28.0184,12.7824 C25.2128,9.7808 21.2328,7.892 16.8,7.892 Z" id="Shape"></path>
                            </g>
                        </g>
                    </g>
                </g>
                <path id="Line-3" d="M535,149 L380,149 L379,149 L379,147 L380,147 L535,147 L535,141 L549,148 L535,155 L535,149 Z" fill="#C0392B" fill-rule="nonzero"></path>
                <text id="State" font-family="Helvetica" font-size="24" font-weight="normal" fill="#C0392B">
                    <tspan x="426" y="141">STATE</tspan>
                </text>
                <path id="Line-3-Copy" d="M537,270 L380,270 L379,270 L379,268 L380,268 L537,268 L537,262 L551,269 L537,276 L537,270 Z" fill="url(#linearGradient-6)" fill-rule="nonzero"></path>
                <text id="Old-State" font-family="Helvetica" font-size="24" font-weight="normal" fill="#C0392B">
                    <tspan x="398" y="262">OLD STATE</tspan>
                </text>
                <text id="Actions" font-family="Helvetica" font-size="24" font-weight="normal" fill="#8E44AD">
                    <tspan x="411" y="23">ACTIONS</tspan>
                </text>
                <text id="Action" font-family="Helvetica" font-size="24" font-weight="normal" fill="#8E44AD">
                    <tspan x="418" y="293">ACTION</tspan>
                </text>
                <path id="Line-5" d="M189,86.5 L189,38 C189,33.0294373 193.029437,29 198,29 L675.640625,29 C680.611188,29 684.640625,33.0294373 684.640625,38 L684.640625,115.5 L684.640625,116.5 L682.640625,116.5 L682.640625,115.5 L682.640625,38 C682.640625,34.1340068 679.506618,31 675.640625,31 L198,31 C194.134007,31 191,34.1340068 191,38 L191,86.5 L197,86.5 L190,100.5 L183,86.5 L189,86.5 Z" fill="#8E44AD" fill-rule="nonzero"></path>
            </g>
        </g>
    </g>
</svg>