<?xml version="1.0" encoding="UTF-8"?>
<svg width="960px" height="400px" viewBox="0 0 960 400" version="1.1" xmlns="http://www.w3.org/2000/svg" xmlns:xlink="http://www.w3.org/1999/xlink">
    <!-- Generator: Sketch 52.4 (67378) - http://www.bohemiancoding.com/sketch -->
    <title>unicore-min</title>
    <desc>Created with Sketch.</desc>
    <defs>
        <rect id="path-1" x="0" y="0" width="200" height="200" rx="16"></rect>
        <rect id="path-2" x="0" y="0" width="200" height="60" rx="16"></rect>
        <rect id="path-3" x="0" y="0" width="200" height="60" rx="16"></rect>
        <rect id="path-4" x="0" y="0" width="266" height="60" rx="16"></rect>
        <rect id="path-5" x="0" y="0" width="266" height="60" rx="16"></rect>
    </defs>
    <g id="The-Unicore" stroke="none" stroke-width="1" fill="none" fill-rule="evenodd">
        <g id="The-Unicore-V1" transform="translate(-480.000000, -340.000000)">
            <g id="Core" transform="translate(975.000000, 440.000000)">
                <g id="L/Nodes/Core">
                    <g id="Rectangle-Copy" stroke-width="3">
                        <rect stroke="#FFFFFF" stroke-linejoin="square" fill="#E74C3C" fill-rule="evenodd" x="1.5" y="1.5" width="197" height="197" rx="16"></rect>
                        <use stroke="#C0392B" xlink:href="#path-1"></use>
                    </g>
                    <text id="CORE" font-family="Helvetica" font-size="24" font-weight="normal" fill="#FFFFFF">
                        <tspan x="15" y="37">CORE</tspan>
                    </text>
                </g>
                <g id="L/Nodes/Reducer" transform="translate(239.000000, 0.000000)">
                    <g id="Rectangle-Copy-3" stroke-width="3">
                        <rect stroke="#FFFFFF" stroke-linejoin="square" fill="#9B59B6" fill-rule="evenodd" x="1.5" y="1.5" width="197" height="57" rx="16"></rect>
                        <use stroke="#8E44AD" xlink:href="#path-2"></use>
                    </g>
                    <text id="Reducer" font-family="Helvetica" font-size="24" font-weight="normal" fill="#FFFFFF">
                        <tspan x="60" y="40">REDUCER</tspan>
                    </text>
                    <g id="L/Icons/Reducer" fill-rule="evenodd" stroke-width="1">
                        <g id="Group-2" transform="translate(10.000000, 10.000000)">
                            <rect id="Rectangle-path" x="0" y="0" width="40" height="40"></rect>
                            <path d="M39.2,22.3632 L39.2,17.5632 L33.4872,16.6296 C33.1488,15.276 32.6176,14.0048 31.9176,12.8392 L35.2472,8.0936 L31.8528,4.7008 L27.168,8.0688 C26,7.3616 24.72,6.8224 23.3576,6.4832 L22.3616,0.7984 L17.5616,0.7984 L16.6368,6.4648 C15.2736,6.7992 13.9864,7.3312 12.8152,8.0352 L8.144,4.6984 L4.7496,8.0912 L8.0352,12.7904 C7.3248,13.9664 6.7848,15.252 6.4416,16.624 L0.8,17.5632 L0.8,22.3632 L6.4352,23.3624 C6.7752,24.732 7.316,26.0168 8.0288,27.1952 L4.6984,31.8536 L8.0912,35.2504 L12.796,31.9552 C13.9704,32.6608 15.2544,33.1968 16.6176,33.5336 L17.5616,39.2032 L22.3616,39.2032 L23.3704,33.5184 C24.7264,33.1752 26.008,32.6352 27.1712,31.9264 L31.9088,35.2512 L35.3024,31.8544 L31.9208,27.1584 C32.6208,25.9928 33.152,24.7208 33.4872,23.3664 L39.2,22.3632 Z M20,26.4 C16.4656,26.4 13.6,23.5336 13.6,20 C13.6,16.4664 16.4656,13.6 20,13.6 C23.5344,13.6 26.4,16.4664 26.4,20 C26.4,23.5336 23.5344,26.4 20,26.4 Z" id="Shape" fill="#FFFFFF"></path>
                        </g>
                    </g>
                </g>
                <g id="L/Nodes/State" transform="translate(239.000000, 140.000000)">
                    <g id="Rectangle-Copy-3" stroke-width="3">
                        <rect stroke="#FFFFFF" stroke-linejoin="square" fill="#F39C12" fill-rule="evenodd" x="1.5" y="1.5" width="197" height="57" rx="16"></rect>
                        <use stroke="#E67E22" xlink:href="#path-3"></use>
                    </g>
                    <text id="State" font-family="Helvetica" font-size="24" font-weight="normal" fill="#FFFFFF">
                        <tspan x="60" y="40">STATE</tspan>
                    </text>
                    <g id="L/Icons/State" fill-rule="evenodd" stroke-width="1">
                        <g id="Group-5" transform="translate(10.000000, 10.000000)">
                            <rect id="Rectangle-path" x="0" y="0" width="40" height="40"></rect>
                            <path d="M5.6,25.6 L5.6,15.2 L34.4,15.2 L34.4,25.6 L5.6,25.6 Z M5.6,27.2 L34.4,27.2 L34.4,34.4 C34.4,36.1672 32.9672,37.6 31.2,37.6 L8.8,37.6 C7.0328,37.6 5.6,36.1672 5.6,34.4 L5.6,27.2 Z M5.6,13.6 L5.6,6.4 C5.6,4.6328 7.0328,3.2 8.8,3.2 L31.2,3.2 C32.9672,3.2 34.4,4.6328 34.4,6.4 L34.4,13.6 L5.6,13.6 Z M15.2,8 C15.2,9.37285326 16.0559556,10.4 17.6,10.4 L22.4,10.4 C23.9341821,10.4 24.8,9.36762568 24.8,8 C24.8,7.5581722 24.4418278,7.2 24,7.2 C23.5581722,7.2 23.2,7.5581722 23.2,8 C23.2,8.54016446 22.9820846,8.8 22.4,8.8 L17.6,8.8 C17.0107111,8.8 16.8,8.54714674 16.8,8 C16.8,7.5581722 16.4418278,7.2 16,7.2 C15.5581722,7.2 15.2,7.5581722 15.2,8 Z M15.2,20.8 C15.2,22.1728533 16.0559556,23.2 17.6,23.2 L22.4,23.2 C23.9341821,23.2 24.8,22.1676257 24.8,20.8 C24.8,20.3581722 24.4418278,20 24,20 C23.5581722,20 23.2,20.3581722 23.2,20.8 C23.2,21.3401645 22.9820846,21.6 22.4,21.6 L17.6,21.6 C17.0107111,21.6 16.8,21.3471467 16.8,20.8 C16.8,20.3581722 16.4418278,20 16,20 C15.5581722,20 15.2,20.3581722 15.2,20.8 Z M15.2,32 C15.2,33.3728533 16.0559556,34.4 17.6,34.4 L22.4,34.4 C23.9341821,34.4 24.8,33.3676257 24.8,32 C24.8,31.5581722 24.4418278,31.2 24,31.2 C23.5581722,31.2 23.2,31.5581722 23.2,32 C23.2,32.5401645 22.9820846,32.8 22.4,32.8 L17.6,32.8 C17.0107111,32.8 16.8,32.5471467 16.8,32 C16.8,31.5581722 16.4418278,31.2 16,31.2 C15.5581722,31.2 15.2,31.5581722 15.2,32 Z" id="Combined-Shape" fill="#FFFFFF"></path>
                        </g>
                    </g>
                </g>
            </g>
            <g id="L/Nodes/Middleware" transform="translate(481.000000, 557.000000)">
                <g id="Rectangle-Copy-3" stroke-width="3">
                    <rect stroke="#FFFFFF" stroke-linejoin="square" fill="#3498DB" fill-rule="evenodd" x="1.5" y="1.5" width="263" height="57" rx="16"></rect>
                    <use stroke="#2980B9" xlink:href="#path-4"></use>
                </g>
                <text id="Middleware" font-family="Helvetica" font-size="24" font-weight="normal" fill="#FFFFFF">
                    <tspan x="60" y="40">MIDDLEWARE</tspan>
                </text>
                <g id="L/Icons/Component" fill-rule="evenodd" stroke-width="1">
                    <g id="Group-4" transform="translate(10.000000, 10.000000)">
                        <rect id="Rectangle-path" x="0" y="0" width="40" height="40"></rect>
                        <path d="M36,13.9104 C36,12.7 35.2544,12.2184 34.36,11.952 C34.36,11.952 28.3112,12.5504 26.1592,12.8008 C24.4616,12.9976 23.5712,11.7008 24.9072,9.5728 C25.7992,8.1512 26.1592,7.6224 26.1592,6.4008 C26.1592,3.7496 23.9568,1.6008 21.2392,1.6008 C18.5208,1.6008 16.3184,3.7496 16.3184,6.4008 C16.3184,7.604 16.736,8.4272 17.5488,9.576 C19.0864,11.7512 18.164,12.9264 16.3184,12.8008 C14.2984,12.664 8.1176,11.952 8.1176,11.952 C7.0408,11.7752 6.6056,12.6752 6.4776,13.86 C6.4776,13.86 6.144,15.2304 5.6224,22.1664 C5.5808,22.3256 5.6184,22.504 5.632,22.576 C5.9144,24.0256 7.416,23.1264 8.9672,22.0256 C9.9664,21.3176 11.012,20.8008 12.248,20.8008 C14.9664,20.8008 17.1688,22.9496 17.1688,25.6008 C17.1688,28.252 14.9664,30.4008 12.248,30.4008 C10.9416,30.4008 10.0368,29.9944 8.8808,29.0848 C7.724,28.1752 6.1448,27.1752 5.6832,28.3008 C5.6016,28.5008 5.5808,28.9008 5.6224,29.1584 C6.1016,34.1504 6.2912,34.388 6.4776,35.2008 C6.664,36.0136 7.212,36.8008 8.1176,36.8008 L33.7456,36.8008 C35.2064,36.8008 36.0008,35.9256 36.0008,34.6008 C36,33.9 36,15.12 36,13.9104 Z" id="Shape" fill="#FFFFFF"></path>
                    </g>
                </g>
            </g>
            <g id="L/Nodes/Subscriber" transform="translate(481.000000, 476.000000)">
                <g id="Rectangle-Copy-3" stroke-width="3">
                    <rect stroke="#FFFFFF" stroke-linejoin="square" fill="#1BBC9C" fill-rule="evenodd" x="1.5" y="1.5" width="263" height="57" rx="16"></rect>
                    <use stroke="#16A085" xlink:href="#path-5"></use>
                </g>
                <text id="Subscriber" font-family="Helvetica" font-size="24" font-weight="normal" fill="#FFFFFF">
                    <tspan x="60" y="40">SUBSCRIBER</tspan>
                </text>
                <g id="L/Icons/Subscriber" fill-rule="evenodd" stroke-width="1">
                    <g id="Group-3" transform="translate(10.000000, 10.000000)">
                        <rect id="Rectangle-path" x="0" y="0" width="40" height="40"></rect>
                        <g id="Group" transform="translate(3.200000, 8.800000)" fill="#FFFFFF">
                            <path d="M16.8,16.0008 C14.6072,16.0008 12.6632,16.9952 11.3328,18.5352 L16.8,24.0008 L22.2672,18.5352 C20.936,16.9952 18.9928,16.0008 16.8,16.0008 Z" id="Shape"></path>
                            <path d="M16.8,0 C10.1872,0 4.2336,2.7712 0,7.2008 L2.9856,10.1864 C6.456,6.5208 11.3536,4.2208 16.8,4.2208 C22.2464,4.2208 27.1448,6.5208 30.6144,10.1864 L33.6,7.2008 C29.3656,2.7712 23.4128,0 16.8,0 Z" id="Shape"></path>
                            <path d="M16.8,7.892 C12.3672,7.892 8.3864,9.78 5.5832,12.7824 L8.752,15.9512 C10.7416,13.7592 13.6064,12.3728 16.8008,12.3728 C19.9952,12.3728 22.86,13.7592 24.8496,15.9512 L28.0184,12.7824 C25.2128,9.7808 21.2328,7.892 16.8,7.892 Z" id="Shape"></path>
                        </g>
                    </g>
                </g>
            </g>
            <path id="Line-3" d="M761,505 L975,505 L976,505 L976,507 L975,507 L761,507 L761,513 L747,506 L761,499 L761,505 Z" fill="#E67E22" fill-rule="nonzero"></path>
            <path id="Line-3-Copy" d="M761.004251,575.061413 L975.004386,576.00001 L976.004376,576.004396 L975.995604,578.004376 L974.995614,577.99999 L760.995479,577.061393 L760.969164,583.061336 L747,576 L761.030567,569.06147 L761.004251,575.061413 Z" fill="#E67E22" fill-rule="nonzero"></path>
            <path id="Line-3-Copy-2" d="M761,596 L975,596 L976,596 L976,598 L975,598 L761,598 L761,604 L747,597 L761,590 L761,596 Z" fill="#8E44AD" fill-rule="nonzero"></path>
            <text id="State" font-family="Helvetica" font-size="16" font-weight="normal" fill="#E67E22">
                <tspan x="820.398438" y="500">STATE</tspan>
            </text>
            <text id="Old-State" font-family="Helvetica" font-size="16" font-weight="normal" fill="#E67E22">
                <tspan x="801.226562" y="570">OLD STATE</tspan>
            </text>
            <text id="Action" font-family="Helvetica" font-size="16" font-weight="normal" fill="#8E44AD">
                <tspan x="814.277344" y="621">ACTION</tspan>
            </text>
            <text id="Actions" font-family="Helvetica" font-size="16" font-weight="normal" fill="#8E44AD">
                <tspan x="809.441406" y="380">ACTIONS</tspan>
            </text>
            <path id="Line-5" d="M1075.35937,424.5 L1075.35937,395 C1075.35937,391.134007 1072.22537,388 1068.35937,388 L622,388 C618.134007,388 615,391.134007 615,395 L615,472.5 L615,473.5 L613,473.5 L613,472.5 L613,395 C613,390.029437 617.029437,386 622,386 L1068.35937,386 C1073.32994,386 1077.35937,390.029437 1077.35937,395 L1077.35937,424.5 L1083.35937,424.5 L1076.35937,438.5 L1069.35937,424.5 L1075.35937,424.5 Z" fill="#8E44AD" fill-rule="nonzero"></path>
            <path id="Line-5-Copy" d="M1075,641.899485 L1082,655.899485 L1068,655.899485 L1075,641.899485 Z M613,620 L613,619 L615,619 L615,620 L615,625 L615,626 L613,626 L613,625 L613,620 Z M613,630 L613,629 L615,629 L615,630 L615,635 L615,636 L613,636 L613,635 L613,630 Z M613,640 L613,639 L615,639 L615,640 L615,645 L615,646 L613,646 L613,645 L613,640 Z M613,650 L613,649 L615,649 L615,650 L615,655 L615,656 L613,656 L613,655 L613,650 Z M613,660 L613,659 L615,659 L615,660 L615,665 L615,666 L613,666 L613,665 L613,660 Z M613,670 L613,669 L615,669 L615,670 L615,675 L615,676 L613,676 L613,675 L613,670 Z M613,680 L613,679 L615,679 L615,680 L615,685 L615,686 L613,686 L613,685 L613,680 Z M613,690 L613,689 L615,689 L615,690 L615,692 C615,692.895266 615.167634,693.765665 615.489974,694.578656 L615.858548,695.508254 L613.999351,696.245402 L613.630777,695.315803 C613.215788,694.269138 613,693.14871 613,692 L613,690 Z M617.216682,699.624884 L616.37002,699.092753 L617.434283,697.399429 L618.280945,697.93156 C619.386232,698.626239 620.664288,699 622,699 L622.512678,699 L623.512678,699 L623.512678,701 L622.512678,701 L622,701 C620.28496,701 618.638492,700.518499 617.216682,699.624884 Z M627.512678,701 L626.512678,701 L626.512678,699 L627.512678,699 L632.512678,699 L633.512678,699 L633.512678,701 L632.512678,701 L627.512678,701 Z M637.512678,701 L636.512678,701 L636.512678,699 L637.512678,699 L642.512678,699 L643.512678,699 L643.512678,701 L642.512678,701 L637.512678,701 Z M647.512678,701 L646.512678,701 L646.512678,699 L647.512678,699 L652.512678,699 L653.512678,699 L653.512678,701 L652.512678,701 L647.512678,701 Z M657.512678,701 L656.512678,701 L656.512678,699 L657.512678,699 L662.512678,699 L663.512678,699 L663.512678,701 L662.512678,701 L657.512678,701 Z M667.512678,701 L666.512678,701 L666.512678,699 L667.512678,699 L672.512678,699 L673.512678,699 L673.512678,701 L672.512678,701 L667.512678,701 Z M677.512678,701 L676.512678,701 L676.512678,699 L677.512678,699 L682.512678,699 L683.512678,699 L683.512678,701 L682.512678,701 L677.512678,701 Z M687.512678,701 L686.512678,701 L686.512678,699 L687.512678,699 L692.512678,699 L693.512678,699 L693.512678,701 L692.512678,701 L687.512678,701 Z M697.512678,701 L696.512678,701 L696.512678,699 L697.512678,699 L702.512678,699 L703.512678,699 L703.512678,701 L702.512678,701 L697.512678,701 Z M707.512678,701 L706.512678,701 L706.512678,699 L707.512678,699 L712.512678,699 L713.512678,699 L713.512678,701 L712.512678,701 L707.512678,701 Z M717.512678,701 L716.512678,701 L716.512678,699 L717.512678,699 L722.512678,699 L723.512678,699 L723.512678,701 L722.512678,701 L717.512678,701 Z M727.512678,701 L726.512678,701 L726.512678,699 L727.512678,699 L732.512678,699 L733.512678,699 L733.512678,701 L732.512678,701 L727.512678,701 Z M737.512678,701 L736.512678,701 L736.512678,699 L737.512678,699 L742.512678,699 L743.512678,699 L743.512678,701 L742.512678,701 L737.512678,701 Z M747.512678,701 L746.512678,701 L746.512678,699 L747.512678,699 L752.512678,699 L753.512678,699 L753.512678,701 L752.512678,701 L747.512678,701 Z M757.512678,701 L756.512678,701 L756.512678,699 L757.512678,699 L762.512678,699 L763.512678,699 L763.512678,701 L762.512678,701 L757.512678,701 Z M767.512678,701 L766.512678,701 L766.512678,699 L767.512678,699 L772.512678,699 L773.512678,699 L773.512678,701 L772.512678,701 L767.512678,701 Z M777.512678,701 L776.512678,701 L776.512678,699 L777.512678,699 L782.512678,699 L783.512678,699 L783.512678,701 L782.512678,701 L777.512678,701 Z M787.512678,701 L786.512678,701 L786.512678,699 L787.512678,699 L792.512678,699 L793.512678,699 L793.512678,701 L792.512678,701 L787.512678,701 Z M797.512678,701 L796.512678,701 L796.512678,699 L797.512678,699 L802.512678,699 L803.512678,699 L803.512678,701 L802.512678,701 L797.512678,701 Z M807.512678,701 L806.512678,701 L806.512678,699 L807.512678,699 L812.512678,699 L813.512678,699 L813.512678,701 L812.512678,701 L807.512678,701 Z M817.512678,701 L816.512678,701 L816.512678,699 L817.512678,699 L822.512678,699 L823.512678,699 L823.512678,701 L822.512678,701 L817.512678,701 Z M827.512678,701 L826.512678,701 L826.512678,699 L827.512678,699 L832.512678,699 L833.512678,699 L833.512678,701 L832.512678,701 L827.512678,701 Z M837.512678,701 L836.512678,701 L836.512678,699 L837.512678,699 L842.512678,699 L843.512678,699 L843.512678,701 L842.512678,701 L837.512678,701 Z M847.512678,701 L846.512678,701 L846.512678,699 L847.512678,699 L852.512678,699 L853.512678,699 L853.512678,701 L852.512678,701 L847.512678,701 Z M857.512678,701 L856.512678,701 L856.512678,699 L857.512678,699 L862.512678,699 L863.512678,699 L863.512678,701 L862.512678,701 L857.512678,701 Z M867.512678,701 L866.512678,701 L866.512678,699 L867.512678,699 L872.512678,699 L873.512678,699 L873.512678,701 L872.512678,701 L867.512678,701 Z M877.512678,701 L876.512678,701 L876.512678,699 L877.512678,699 L882.512678,699 L883.512678,699 L883.512678,701 L882.512678,701 L877.512678,701 Z M887.512678,701 L886.512678,701 L886.512678,699 L887.512678,699 L892.512678,699 L893.512678,699 L893.512678,701 L892.512678,701 L887.512678,701 Z M897.512678,701 L896.512678,701 L896.512678,699 L897.512678,699 L902.512678,699 L903.512678,699 L903.512678,701 L902.512678,701 L897.512678,701 Z M907.512678,701 L906.512678,701 L906.512678,699 L907.512678,699 L912.512678,699 L913.512678,699 L913.512678,701 L912.512678,701 L907.512678,701 Z M917.512678,701 L916.512678,701 L916.512678,699 L917.512678,699 L922.512678,699 L923.512678,699 L923.512678,701 L922.512678,701 L917.512678,701 Z M927.512678,701 L926.512678,701 L926.512678,699 L927.512678,699 L932.512678,699 L933.512678,699 L933.512678,701 L932.512678,701 L927.512678,701 Z M937.512678,701 L936.512678,701 L936.512678,699 L937.512678,699 L942.512678,699 L943.512678,699 L943.512678,701 L942.512678,701 L937.512678,701 Z M947.512678,701 L946.512678,701 L946.512678,699 L947.512678,699 L952.512678,699 L953.512678,699 L953.512678,701 L952.512678,701 L947.512678,701 Z M957.512678,701 L956.512678,701 L956.512678,699 L957.512678,699 L962.512678,699 L963.512678,699 L963.512678,701 L962.512678,701 L957.512678,701 Z M967.512678,701 L966.512678,701 L966.512678,699 L967.512678,699 L972.512678,699 L973.512678,699 L973.512678,701 L972.512678,701 L967.512678,701 Z M977.512678,701 L976.512678,701 L976.512678,699 L977.512678,699 L982.512678,699 L983.512678,699 L983.512678,701 L982.512678,701 L977.512678,701 Z M987.512678,701 L986.512678,701 L986.512678,699 L987.512678,699 L992.512678,699 L993.512678,699 L993.512678,701 L992.512678,701 L987.512678,701 Z M997.512678,701 L996.512678,701 L996.512678,699 L997.512678,699 L1002.51268,699 L1003.51268,699 L1003.51268,701 L1002.51268,701 L997.512678,701 Z M1007.51268,701 L1006.51268,701 L1006.51268,699 L1007.51268,699 L1012.51268,699 L1013.51268,699 L1013.51268,701 L1012.51268,701 L1007.51268,701 Z M1017.51268,701 L1016.51268,701 L1016.51268,699 L1017.51268,699 L1022.51268,699 L1023.51268,699 L1023.51268,701 L1022.51268,701 L1017.51268,701 Z M1027.51268,701 L1026.51268,701 L1026.51268,699 L1027.51268,699 L1032.51268,699 L1033.51268,699 L1033.51268,701 L1032.51268,701 L1027.51268,701 Z M1037.51268,701 L1036.51268,701 L1036.51268,699 L1037.51268,699 L1042.51268,699 L1043.51268,699 L1043.51268,701 L1042.51268,701 L1037.51268,701 Z M1047.51268,701 L1046.51268,701 L1046.51268,699 L1047.51268,699 L1052.51268,699 L1053.51268,699 L1053.51268,701 L1052.51268,701 L1047.51268,701 Z M1057.51268,701 L1056.51268,701 L1056.51268,699 L1057.51268,699 L1062.51268,699 L1063.51268,699 L1063.51268,701 L1062.51268,701 L1057.51268,701 Z M1067.57569,700.98185 L1066.57768,701.044958 L1066.45147,699.048944 L1067.44947,698.985837 C1068.95708,698.890505 1070.36957,698.31487 1071.50811,697.355321 L1072.27276,696.710879 L1073.56165,698.240184 L1072.79699,698.884627 C1071.33366,700.117911 1069.51457,700.859247 1067.57569,700.98185 Z M1075.7609,694.068617 L1075.53184,695.042029 L1073.58501,694.583909 L1073.81407,693.610497 C1073.93719,693.0873 1074,692.548133 1074,692 L1074,688.974643 L1074,687.974643 L1076,687.974643 L1076,688.974643 L1076,692 C1076,692.702659 1075.91928,693.395546 1075.7609,694.068617 Z M1076,683.974643 L1076,684.974643 L1074,684.974643 L1074,683.974643 L1074,678.974643 L1074,677.974643 L1076,677.974643 L1076,678.974643 L1076,683.974643 Z M1076,673.974643 L1076,674.974643 L1074,674.974643 L1074,673.974643 L1074,668.974643 L1074,667.974643 L1076,667.974643 L1076,668.974643 L1076,673.974643 Z M1076,663.974643 L1076,664.974643 L1074,664.974643 L1074,663.974643 L1074,658.974643 L1074,657.974643 L1076,657.974643 L1076,658.974643 L1076,663.974643 Z" fill-opacity="0.5" fill="#8E44AD" fill-rule="nonzero"></path>
            <text id="Actions-Copy" font-family="Helvetica" font-size="16" font-weight="normal" fill="#8E44AD" fill-opacity="0.5">
                <tspan x="809.441406" y="693">ACTIONS</tspan>
            </text>
            <path id="Line-8" d="M1313.5,566 L1313.5,500 L1313.5,499 L1315.5,499 L1315.5,500 L1315.5,566 L1321.5,566 L1314.5,580 L1307.5,566 L1313.5,566 Z" fill="#E67E22" fill-rule="nonzero"></path>
            <path id="Line" d="M1198,458 L1177,458 L1176,458 L1176,456 L1177,456 L1198,456 L1198,450 L1212,457 L1198,464 L1198,458 Z" fill="#F39C12" fill-rule="nonzero"></path>
            <path id="Line-Copy" d="M1198,487 L1177,487 L1176,487 L1176,485 L1177,485 L1198,485 L1198,479 L1212,486 L1198,493 L1198,487 Z" fill="#8E44AD" fill-rule="nonzero"></path>
            <path id="Line-9" d="M1153.42911,609 L1214,609 L1215,609 L1215,611 L1214,611 L1153.42911,611 C1152.94388,614.392294 1150.02647,617 1146.5,617 C1142.63401,617 1139.5,613.865993 1139.5,610 C1139.5,606.134007 1142.63401,603 1146.5,603 C1150.02647,603 1152.94388,605.607706 1153.42911,609 Z" fill="#F39C12" fill-rule="nonzero"></path>
        </g>
    </g>
</svg>