<?xml version="1.0" encoding="UTF-8"?>
<svg width="960px" height="400px" viewBox="0 0 960 400" version="1.1" xmlns="http://www.w3.org/2000/svg" xmlns:xlink="http://www.w3.org/1999/xlink">
    <!-- Generator: Sketch 52.4 (67378) - http://www.bohemiancoding.com/sketch -->
    <title>unicore-min</title>
    <desc>Created with Sketch.</desc>
    <defs>
        <rect id="path-1" x="0" y="0" width="392" height="160" rx="16"></rect>
        <rect id="path-2" x="0" y="0" width="266" height="60" rx="16"></rect>
        <rect id="path-3" x="0" y="0" width="266" height="60" rx="16"></rect>
        <rect id="path-4" x="0" y="0" width="266" height="60" rx="16"></rect>
        <rect id="path-5" x="0" y="0" width="266" height="60" rx="16"></rect>
        <linearGradient x1="50%" y1="0%" x2="50%" y2="100%" id="linearGradient-6">
            <stop stop-color="#E16B56" offset="0%"></stop>
            <stop stop-color="#8E44AD" offset="100%"></stop>
        </linearGradient>
    </defs>
    <g id="The-Unicore" stroke="none" stroke-width="1" fill="none" fill-rule="evenodd">
        <g id="The-Unicore-V1" transform="translate(-805.000000, -159.000000)">
            <g id="L/Nodes/Core" transform="translate(871.000000, 291.000000)">
                <g id="Rectangle-Copy" stroke-width="3">
                    <rect stroke="#FFFFFF" stroke-linejoin="square" fill="#E74C3C" fill-rule="evenodd" x="1.5" y="1.5" width="389" height="157" rx="16"></rect>
                    <use stroke="#C0392B" xlink:href="#path-1"></use>
                </g>
                <text id="CORE" font-family="Helvetica" font-size="24" font-weight="normal" fill="#FFFFFF">
                    <tspan x="15" y="37">CORE</tspan>
                </text>
            </g>
            <g id="Group" transform="translate(978.000000, 306.000000)">
                <g id="L/Nodes/Reducer" transform="translate(0.000000, 71.000000)">
                    <g id="Rectangle-Copy-3" stroke-width="3">
                        <rect stroke="#FFFFFF" stroke-linejoin="square" fill="#9B59B6" fill-rule="evenodd" x="1.5" y="1.5" width="263" height="57" rx="16"></rect>
                        <use stroke="#8E44AD" xlink:href="#path-2"></use>
                    </g>
                    <text id="Reducer" font-family="Helvetica" font-size="24" font-weight="normal" fill="#FFFFFF">
                        <tspan x="60" y="40">REDUCER</tspan>
                    </text>
                    <g id="L/Icons/Reducer" fill-rule="evenodd" stroke-width="1">
                        <g id="Group-2" transform="translate(10.000000, 10.000000)">
                            <rect id="Rectangle-path" x="0" y="0" width="40" height="40"></rect>
                            <path d="M39.2,22.3632 L39.2,17.5632 L33.4872,16.6296 C33.1488,15.276 32.6176,14.0048 31.9176,12.8392 L35.2472,8.0936 L31.8528,4.7008 L27.168,8.0688 C26,7.3616 24.72,6.8224 23.3576,6.4832 L22.3616,0.7984 L17.5616,0.7984 L16.6368,6.4648 C15.2736,6.7992 13.9864,7.3312 12.8152,8.0352 L8.144,4.6984 L4.7496,8.0912 L8.0352,12.7904 C7.3248,13.9664 6.7848,15.252 6.4416,16.624 L0.8,17.5632 L0.8,22.3632 L6.4352,23.3624 C6.7752,24.732 7.316,26.0168 8.0288,27.1952 L4.6984,31.8536 L8.0912,35.2504 L12.796,31.9552 C13.9704,32.6608 15.2544,33.1968 16.6176,33.5336 L17.5616,39.2032 L22.3616,39.2032 L23.3704,33.5184 C24.7264,33.1752 26.008,32.6352 27.1712,31.9264 L31.9088,35.2512 L35.3024,31.8544 L31.9208,27.1584 C32.6208,25.9928 33.152,24.7208 33.4872,23.3664 L39.2,22.3632 Z M20,26.4 C16.4656,26.4 13.6,23.5336 13.6,20 C13.6,16.4664 16.4656,13.6 20,13.6 C23.5344,13.6 26.4,16.4664 26.4,20 C26.4,23.5336 23.5344,26.4 20,26.4 Z" id="Shape" fill="#FFFFFF"></path>
                        </g>
                    </g>
                </g>
                <g id="L/Nodes/State">
                    <g id="Rectangle-Copy-3" stroke-width="3">
                        <rect stroke="#FFFFFF" stroke-linejoin="square" fill="#F39C12" fill-rule="evenodd" x="1.5" y="1.5" width="263" height="57" rx="16"></rect>
                        <use stroke="#E67E22" xlink:href="#path-3"></use>
                    </g>
                    <text id="State" font-family="Helvetica" font-size="24" font-weight="normal" fill="#FFFFFF">
                        <tspan x="60" y="40">STATE</tspan>
                    </text>
                    <g id="L/Icons/State" fill-rule="evenodd" stroke-width="1">
                        <g id="Group-5" transform="translate(10.000000, 10.000000)">
                            <rect id="Rectangle-path" x="0" y="0" width="40" height="40"></rect>
                            <path d="M5.6,25.6 L5.6,15.2 L34.4,15.2 L34.4,25.6 L5.6,25.6 Z M5.6,27.2 L34.4,27.2 L34.4,34.4 C34.4,36.1672 32.9672,37.6 31.2,37.6 L8.8,37.6 C7.0328,37.6 5.6,36.1672 5.6,34.4 L5.6,27.2 Z M5.6,13.6 L5.6,6.4 C5.6,4.6328 7.0328,3.2 8.8,3.2 L31.2,3.2 C32.9672,3.2 34.4,4.6328 34.4,6.4 L34.4,13.6 L5.6,13.6 Z M15.2,8 C15.2,9.37285326 16.0559556,10.4 17.6,10.4 L22.4,10.4 C23.9341821,10.4 24.8,9.36762568 24.8,8 C24.8,7.5581722 24.4418278,7.2 24,7.2 C23.5581722,7.2 23.2,7.5581722 23.2,8 C23.2,8.54016446 22.9820846,8.8 22.4,8.8 L17.6,8.8 C17.0107111,8.8 16.8,8.54714674 16.8,8 C16.8,7.5581722 16.4418278,7.2 16,7.2 C15.5581722,7.2 15.2,7.5581722 15.2,8 Z M15.2,20.8 C15.2,22.1728533 16.0559556,23.2 17.6,23.2 L22.4,23.2 C23.9341821,23.2 24.8,22.1676257 24.8,20.8 C24.8,20.3581722 24.4418278,20 24,20 C23.5581722,20 23.2,20.3581722 23.2,20.8 C23.2,21.3401645 22.9820846,21.6 22.4,21.6 L17.6,21.6 C17.0107111,21.6 16.8,21.3471467 16.8,20.8 C16.8,20.3581722 16.4418278,20 16,20 C15.5581722,20 15.2,20.3581722 15.2,20.8 Z M15.2,32 C15.2,33.3728533 16.0559556,34.4 17.6,34.4 L22.4,34.4 C23.9341821,34.4 24.8,33.3676257 24.8,32 C24.8,31.5581722 24.4418278,31.2 24,31.2 C23.5581722,31.2 23.2,31.5581722 23.2,32 C23.2,32.5401645 22.9820846,32.8 22.4,32.8 L17.6,32.8 C17.0107111,32.8 16.8,32.5471467 16.8,32 C16.8,31.5581722 16.4418278,31.2 16,31.2 C15.5581722,31.2 15.2,31.5581722 15.2,32 Z" id="Combined-Shape" fill="#FFFFFF"></path>
                        </g>
                    </g>
                </g>
            </g>
            <g id="L/Nodes/Middleware" transform="translate(1434.000000, 388.000000)">
                <g id="Rectangle-Copy-3" stroke-width="3">
                    <rect stroke="#FFFFFF" stroke-linejoin="square" fill="#3498DB" fill-rule="evenodd" x="1.5" y="1.5" width="263" height="57" rx="16"></rect>
                    <use stroke="#2980B9" xlink:href="#path-4"></use>
                </g>
                <text id="Middleware" font-family="Helvetica" font-size="24" font-weight="normal" fill="#FFFFFF">
                    <tspan x="60" y="40">MIDDLEWARE</tspan>
                </text>
                <g id="L/Icons/Component" fill-rule="evenodd" stroke-width="1">
                    <g id="Group-4" transform="translate(10.000000, 10.000000)">
                        <rect id="Rectangle-path" x="0" y="0" width="40" height="40"></rect>
                        <path d="M36,13.9104 C36,12.7 35.2544,12.2184 34.36,11.952 C34.36,11.952 28.3112,12.5504 26.1592,12.8008 C24.4616,12.9976 23.5712,11.7008 24.9072,9.5728 C25.7992,8.1512 26.1592,7.6224 26.1592,6.4008 C26.1592,3.7496 23.9568,1.6008 21.2392,1.6008 C18.5208,1.6008 16.3184,3.7496 16.3184,6.4008 C16.3184,7.604 16.736,8.4272 17.5488,9.576 C19.0864,11.7512 18.164,12.9264 16.3184,12.8008 C14.2984,12.664 8.1176,11.952 8.1176,11.952 C7.0408,11.7752 6.6056,12.6752 6.4776,13.86 C6.4776,13.86 6.144,15.2304 5.6224,22.1664 C5.5808,22.3256 5.6184,22.504 5.632,22.576 C5.9144,24.0256 7.416,23.1264 8.9672,22.0256 C9.9664,21.3176 11.012,20.8008 12.248,20.8008 C14.9664,20.8008 17.1688,22.9496 17.1688,25.6008 C17.1688,28.252 14.9664,30.4008 12.248,30.4008 C10.9416,30.4008 10.0368,29.9944 8.8808,29.0848 C7.724,28.1752 6.1448,27.1752 5.6832,28.3008 C5.6016,28.5008 5.5808,28.9008 5.6224,29.1584 C6.1016,34.1504 6.2912,34.388 6.4776,35.2008 C6.664,36.0136 7.212,36.8008 8.1176,36.8008 L33.7456,36.8008 C35.2064,36.8008 36.0008,35.9256 36.0008,34.6008 C36,33.9 36,15.12 36,13.9104 Z" id="Shape" fill="#FFFFFF"></path>
                    </g>
                </g>
            </g>
            <g id="L/Nodes/Subscriber" transform="translate(1434.000000, 307.000000)">
                <g id="Rectangle-Copy-3" stroke-width="3">
                    <rect stroke="#FFFFFF" stroke-linejoin="square" fill="#1BBC9C" fill-rule="evenodd" x="1.5" y="1.5" width="263" height="57" rx="16"></rect>
                    <use stroke="#16A085" xlink:href="#path-5"></use>
                </g>
                <text id="Subscriber" font-family="Helvetica" font-size="24" font-weight="normal" fill="#FFFFFF">
                    <tspan x="60" y="40">SUBSCRIBER</tspan>
                </text>
                <g id="L/Icons/Subscriber" fill-rule="evenodd" stroke-width="1">
                    <g id="Group-3" transform="translate(10.000000, 10.000000)">
                        <rect id="Rectangle-path" x="0" y="0" width="40" height="40"></rect>
                        <g id="Group" transform="translate(3.200000, 8.800000)" fill="#FFFFFF">
                            <path d="M16.8,16.0008 C14.6072,16.0008 12.6632,16.9952 11.3328,18.5352 L16.8,24.0008 L22.2672,18.5352 C20.936,16.9952 18.9928,16.0008 16.8,16.0008 Z" id="Shape"></path>
                            <path d="M16.8,0 C10.1872,0 4.2336,2.7712 0,7.2008 L2.9856,10.1864 C6.456,6.5208 11.3536,4.2208 16.8,4.2208 C22.2464,4.2208 27.1448,6.5208 30.6144,10.1864 L33.6,7.2008 C29.3656,2.7712 23.4128,0 16.8,0 Z" id="Shape"></path>
                            <path d="M16.8,7.892 C12.3672,7.892 8.3864,9.78 5.5832,12.7824 L8.752,15.9512 C10.7416,13.7592 13.6064,12.3728 16.8008,12.3728 C19.9952,12.3728 22.86,13.7592 24.8496,15.9512 L28.0184,12.7824 C25.2128,9.7808 21.2328,7.892 16.8,7.892 Z" id="Shape"></path>
                        </g>
                    </g>
                </g>
            </g>
            <path id="Line-3" d="M1418,338 L1263,338 L1262,338 L1262,336 L1263,336 L1418,336 L1418,330 L1432,337 L1418,344 L1418,338 Z" fill="#C0392B" fill-rule="nonzero"></path>
            <text id="State" font-family="Helvetica" font-size="24" font-weight="normal" fill="#C0392B">
                <tspan x="1309" y="330">STATE</tspan>
            </text>
            <path id="Line-3-Copy" d="M1420,419 L1263,419 L1262,419 L1262,417 L1263,417 L1420,417 L1420,411 L1434,418 L1420,425 L1420,419 Z" fill="url(#linearGradient-6)" fill-rule="nonzero"></path>
            <text id="Old-State" font-family="Helvetica" font-size="24" font-weight="normal" fill="#C0392B">
                <tspan x="1281" y="411">OLD STATE</tspan>
            </text>
            <text id="Action" font-family="Helvetica" font-size="24" font-weight="normal" fill="#8E44AD">
                <tspan x="1301" y="442">ACTION</tspan>
            </text>
            <text id="Actions" font-family="Helvetica" font-size="24" font-weight="normal" fill="#8E44AD">
                <tspan x="1294" y="212">ACTIONS</tspan>
            </text>
            <path id="Line-5" d="M1072,275.5 L1072,227 C1072,222.029437 1076.02944,218 1081,218 L1558.64063,218 C1563.61119,218 1567.64063,222.029437 1567.64063,227 L1567.64063,304.5 L1567.64063,305.5 L1565.64063,305.5 L1565.64063,304.5 L1565.64063,227 C1565.64063,223.134007 1562.50662,220 1558.64063,220 L1081,220 C1077.13401,220 1074,223.134007 1074,227 L1074,275.5 L1080,275.5 L1073,289.5 L1066,275.5 L1072,275.5 Z" fill="#8E44AD" fill-rule="nonzero"></path>
            <path id="Line-5-Copy" d="M1074,466.5 L1074,466.849643 L1074,467.849643 L1072,467.849643 L1072,466.849643 L1072,466.5 L1066,466.5 L1073,452.5 L1080,466.5 L1074,466.5 Z M1565.64063,449.5 L1565.64063,448.5 L1567.64063,448.5 L1567.64063,449.5 L1567.64063,454.5 L1567.64063,455.5 L1565.64063,455.5 L1565.64063,454.5 L1565.64063,449.5 Z M1565.64063,459.5 L1565.64063,458.5 L1567.64063,458.5 L1567.64063,459.5 L1567.64063,464.5 L1567.64063,465.5 L1565.64063,465.5 L1565.64063,464.5 L1565.64063,459.5 Z M1565.64063,469.5 L1565.64063,468.5 L1567.64063,468.5 L1567.64063,469.5 L1567.64063,474.5 L1567.64063,475.5 L1565.64063,475.5 L1565.64063,474.5 L1565.64063,469.5 Z M1565.64063,479.5 L1565.64063,478.5 L1567.64063,478.5 L1567.64063,479.5 L1567.64063,484.5 L1567.64063,485.5 L1565.64063,485.5 L1565.64063,484.5 L1565.64063,479.5 Z M1565.64063,489.5 L1565.64063,488.5 L1567.64063,488.5 L1567.64063,489.5 L1567.64063,494.5 L1567.64063,495.5 L1565.64063,495.5 L1565.64063,494.5 L1565.64063,489.5 Z M1565.64063,499.5 L1565.64063,498.5 L1567.64063,498.5 L1567.64063,499.5 L1567.64063,504.5 L1567.64063,505.5 L1565.64063,505.5 L1565.64063,504.5 L1565.64063,499.5 Z M1565.64063,509.5 L1565.64063,508.5 L1567.64063,508.5 L1567.64063,509.5 L1567.64063,514.5 L1567.64063,515.5 L1565.64063,515.5 L1565.64063,514.5 L1565.64063,509.5 Z M1565.64063,519.5 L1565.64063,518.5 L1567.64063,518.5 L1567.64063,519.5 L1567.64063,521.867188 C1567.64063,522.872348 1567.47542,523.856368 1567.15542,524.789092 L1566.8309,525.734972 L1564.93914,525.085934 L1565.26366,524.140055 C1565.51223,523.415529 1565.64063,522.650773 1565.64063,521.867188 L1565.64063,519.5 Z M1562.63595,527.615867 L1563.45653,527.04434 L1564.59958,528.685508 L1563.779,529.257034 C1562.28256,530.299287 1560.50282,530.867188 1558.64063,530.867188 L1558.49513,530.867188 L1557.49513,530.867188 L1557.49513,528.867188 L1558.49513,528.867188 L1558.64063,528.867188 C1560.09076,528.867188 1561.47225,528.426363 1562.63595,527.615867 Z M1553.49513,528.867188 L1554.49513,528.867188 L1554.49513,530.867188 L1553.49513,530.867188 L1548.49513,530.867188 L1547.49513,530.867188 L1547.49513,528.867188 L1548.49513,528.867188 L1553.49513,528.867188 Z M1543.49513,528.867188 L1544.49513,528.867188 L1544.49513,530.867188 L1543.49513,530.867188 L1538.49513,530.867188 L1537.49513,530.867188 L1537.49513,528.867188 L1538.49513,528.867188 L1543.49513,528.867188 Z M1533.49513,528.867188 L1534.49513,528.867188 L1534.49513,530.867188 L1533.49513,530.867188 L1528.49513,530.867188 L1527.49513,530.867188 L1527.49513,528.867188 L1528.49513,528.867188 L1533.49513,528.867188 Z M1523.49513,528.867188 L1524.49513,528.867188 L1524.49513,530.867188 L1523.49513,530.867188 L1518.49513,530.867188 L1517.49513,530.867188 L1517.49513,528.867188 L1518.49513,528.867188 L1523.49513,528.867188 Z M1513.49513,528.867188 L1514.49513,528.867188 L1514.49513,530.867188 L1513.49513,530.867188 L1508.49513,530.867188 L1507.49513,530.867188 L1507.49513,528.867188 L1508.49513,528.867188 L1513.49513,528.867188 Z M1503.49513,528.867188 L1504.49513,528.867188 L1504.49513,530.867188 L1503.49513,530.867188 L1498.49513,530.867188 L1497.49513,530.867188 L1497.49513,528.867188 L1498.49513,528.867188 L1503.49513,528.867188 Z M1493.49513,528.867188 L1494.49513,528.867188 L1494.49513,530.867188 L1493.49513,530.867188 L1488.49513,530.867188 L1487.49513,530.867188 L1487.49513,528.867188 L1488.49513,528.867188 L1493.49513,528.867188 Z M1483.49513,528.867188 L1484.49513,528.867188 L1484.49513,530.867188 L1483.49513,530.867188 L1478.49513,530.867188 L1477.49513,530.867188 L1477.49513,528.867188 L1478.49513,528.867188 L1483.49513,528.867188 Z M1473.49513,528.867188 L1474.49513,528.867188 L1474.49513,530.867188 L1473.49513,530.867188 L1468.49513,530.867188 L1467.49513,530.867188 L1467.49513,528.867188 L1468.49513,528.867188 L1473.49513,528.867188 Z M1463.49513,528.867188 L1464.49513,528.867188 L1464.49513,530.867188 L1463.49513,530.867188 L1458.49513,530.867188 L1457.49513,530.867188 L1457.49513,528.867188 L1458.49513,528.867188 L1463.49513,528.867188 Z M1453.49513,528.867188 L1454.49513,528.867188 L1454.49513,530.867188 L1453.49513,530.867188 L1448.49513,530.867188 L1447.49513,530.867188 L1447.49513,528.867188 L1448.49513,528.867188 L1453.49513,528.867188 Z M1443.49513,528.867188 L1444.49513,528.867188 L1444.49513,530.867188 L1443.49513,530.867188 L1438.49513,530.867188 L1437.49513,530.867188 L1437.49513,528.867188 L1438.49513,528.867188 L1443.49513,528.867188 Z M1433.49513,528.867188 L1434.49513,528.867188 L1434.49513,530.867188 L1433.49513,530.867188 L1428.49513,530.867188 L1427.49513,530.867188 L1427.49513,528.867188 L1428.49513,528.867188 L1433.49513,528.867188 Z M1423.49513,528.867188 L1424.49513,528.867188 L1424.49513,530.867188 L1423.49513,530.867188 L1418.49513,530.867188 L1417.49513,530.867188 L1417.49513,528.867188 L1418.49513,528.867188 L1423.49513,528.867188 Z M1413.49513,528.867188 L1414.49513,528.867188 L1414.49513,530.867188 L1413.49513,530.867188 L1408.49513,530.867188 L1407.49513,530.867188 L1407.49513,528.867188 L1408.49513,528.867188 L1413.49513,528.867188 Z M1403.49513,528.867188 L1404.49513,528.867188 L1404.49513,530.867188 L1403.49513,530.867188 L1398.49513,530.867188 L1397.49513,530.867188 L1397.49513,528.867188 L1398.49513,528.867188 L1403.49513,528.867188 Z M1393.49513,528.867188 L1394.49513,528.867188 L1394.49513,530.867188 L1393.49513,530.867188 L1388.49513,530.867188 L1387.49513,530.867188 L1387.49513,528.867188 L1388.49513,528.867188 L1393.49513,528.867188 Z M1383.49513,528.867188 L1384.49513,528.867188 L1384.49513,530.867188 L1383.49513,530.867188 L1378.49513,530.867188 L1377.49513,530.867188 L1377.49513,528.867188 L1378.49513,528.867188 L1383.49513,528.867188 Z M1373.49513,528.867188 L1374.49513,528.867188 L1374.49513,530.867188 L1373.49513,530.867188 L1368.49513,530.867188 L1367.49513,530.867188 L1367.49513,528.867188 L1368.49513,528.867188 L1373.49513,528.867188 Z M1363.49513,528.867188 L1364.49513,528.867188 L1364.49513,530.867188 L1363.49513,530.867188 L1358.49513,530.867188 L1357.49513,530.867188 L1357.49513,528.867188 L1358.49513,528.867188 L1363.49513,528.867188 Z M1353.49513,528.867188 L1354.49513,528.867188 L1354.49513,530.867188 L1353.49513,530.867188 L1348.49513,530.867188 L1347.49513,530.867188 L1347.49513,528.867188 L1348.49513,528.867188 L1353.49513,528.867188 Z M1343.49513,528.867188 L1344.49513,528.867188 L1344.49513,530.867188 L1343.49513,530.867188 L1338.49513,530.867188 L1337.49513,530.867188 L1337.49513,528.867188 L1338.49513,528.867188 L1343.49513,528.867188 Z M1333.49513,528.867188 L1334.49513,528.867188 L1334.49513,530.867188 L1333.49513,530.867188 L1328.49513,530.867188 L1327.49513,530.867188 L1327.49513,528.867188 L1328.49513,528.867188 L1333.49513,528.867188 Z M1323.49513,528.867188 L1324.49513,528.867188 L1324.49513,530.867188 L1323.49513,530.867188 L1318.49513,530.867188 L1317.49513,530.867188 L1317.49513,528.867188 L1318.49513,528.867188 L1323.49513,528.867188 Z M1313.49513,528.867188 L1314.49513,528.867188 L1314.49513,530.867188 L1313.49513,530.867188 L1308.49513,530.867188 L1307.49513,530.867188 L1307.49513,528.867188 L1308.49513,528.867188 L1313.49513,528.867188 Z M1303.49513,528.867188 L1304.49513,528.867188 L1304.49513,530.867188 L1303.49513,530.867188 L1298.49513,530.867188 L1297.49513,530.867188 L1297.49513,528.867188 L1298.49513,528.867188 L1303.49513,528.867188 Z M1293.49513,528.867188 L1294.49513,528.867188 L1294.49513,530.867188 L1293.49513,530.867188 L1288.49513,530.867188 L1287.49513,530.867188 L1287.49513,528.867188 L1288.49513,528.867188 L1293.49513,528.867188 Z M1283.49513,528.867188 L1284.49513,528.867188 L1284.49513,530.867188 L1283.49513,530.867188 L1278.49513,530.867188 L1277.49513,530.867188 L1277.49513,528.867188 L1278.49513,528.867188 L1283.49513,528.867188 Z M1273.49513,528.867188 L1274.49513,528.867188 L1274.49513,530.867188 L1273.49513,530.867188 L1268.49513,530.867188 L1267.49513,530.867188 L1267.49513,528.867188 L1268.49513,528.867188 L1273.49513,528.867188 Z M1263.49513,528.867188 L1264.49513,528.867188 L1264.49513,530.867188 L1263.49513,530.867188 L1258.49513,530.867188 L1257.49513,530.867188 L1257.49513,528.867188 L1258.49513,528.867188 L1263.49513,528.867188 Z M1253.49513,528.867188 L1254.49513,528.867188 L1254.49513,530.867188 L1253.49513,530.867188 L1248.49513,530.867188 L1247.49513,530.867188 L1247.49513,528.867188 L1248.49513,528.867188 L1253.49513,528.867188 Z M1243.49513,528.867188 L1244.49513,528.867188 L1244.49513,530.867188 L1243.49513,530.867188 L1238.49513,530.867188 L1237.49513,530.867188 L1237.49513,528.867188 L1238.49513,528.867188 L1243.49513,528.867188 Z M1233.49513,528.867188 L1234.49513,528.867188 L1234.49513,530.867188 L1233.49513,530.867188 L1228.49513,530.867188 L1227.49513,530.867188 L1227.49513,528.867188 L1228.49513,528.867188 L1233.49513,528.867188 Z M1223.49513,528.867188 L1224.49513,528.867188 L1224.49513,530.867188 L1223.49513,530.867188 L1218.49513,530.867188 L1217.49513,530.867188 L1217.49513,528.867188 L1218.49513,528.867188 L1223.49513,528.867188 Z M1213.49513,528.867188 L1214.49513,528.867188 L1214.49513,530.867188 L1213.49513,530.867188 L1208.49513,530.867188 L1207.49513,530.867188 L1207.49513,528.867188 L1208.49513,528.867188 L1213.49513,528.867188 Z M1203.49513,528.867188 L1204.49513,528.867188 L1204.49513,530.867188 L1203.49513,530.867188 L1198.49513,530.867188 L1197.49513,530.867188 L1197.49513,528.867188 L1198.49513,528.867188 L1203.49513,528.867188 Z M1193.49513,528.867188 L1194.49513,528.867188 L1194.49513,530.867188 L1193.49513,530.867188 L1188.49513,530.867188 L1187.49513,530.867188 L1187.49513,528.867188 L1188.49513,528.867188 L1193.49513,528.867188 Z M1183.49513,528.867188 L1184.49513,528.867188 L1184.49513,530.867188 L1183.49513,530.867188 L1178.49513,530.867188 L1177.49513,530.867188 L1177.49513,528.867188 L1178.49513,528.867188 L1183.49513,528.867188 Z M1173.49513,528.867188 L1174.49513,528.867188 L1174.49513,530.867188 L1173.49513,530.867188 L1168.49513,530.867188 L1167.49513,530.867188 L1167.49513,528.867188 L1168.49513,528.867188 L1173.49513,528.867188 Z M1163.49513,528.867188 L1164.49513,528.867188 L1164.49513,530.867188 L1163.49513,530.867188 L1158.49513,530.867188 L1157.49513,530.867188 L1157.49513,528.867188 L1158.49513,528.867188 L1163.49513,528.867188 Z M1153.49513,528.867188 L1154.49513,528.867188 L1154.49513,530.867188 L1153.49513,530.867188 L1148.49513,530.867188 L1147.49513,530.867188 L1147.49513,528.867188 L1148.49513,528.867188 L1153.49513,528.867188 Z M1143.49513,528.867188 L1144.49513,528.867188 L1144.49513,530.867188 L1143.49513,530.867188 L1138.49513,530.867188 L1137.49513,530.867188 L1137.49513,528.867188 L1138.49513,528.867188 L1143.49513,528.867188 Z M1133.49513,528.867188 L1134.49513,528.867188 L1134.49513,530.867188 L1133.49513,530.867188 L1128.49513,530.867188 L1127.49513,530.867188 L1127.49513,528.867188 L1128.49513,528.867188 L1133.49513,528.867188 Z M1123.49513,528.867188 L1124.49513,528.867188 L1124.49513,530.867188 L1123.49513,530.867188 L1118.49513,530.867188 L1117.49513,530.867188 L1117.49513,528.867188 L1118.49513,528.867188 L1123.49513,528.867188 Z M1113.49513,528.867188 L1114.49513,528.867188 L1114.49513,530.867188 L1113.49513,530.867188 L1108.49513,530.867188 L1107.49513,530.867188 L1107.49513,528.867188 L1108.49513,528.867188 L1113.49513,528.867188 Z M1103.49513,528.867188 L1104.49513,528.867188 L1104.49513,530.867188 L1103.49513,530.867188 L1098.49513,530.867188 L1097.49513,530.867188 L1097.49513,528.867188 L1098.49513,528.867188 L1103.49513,528.867188 Z M1093.49513,528.867188 L1094.49513,528.867188 L1094.49513,530.867188 L1093.49513,530.867188 L1088.49513,530.867188 L1087.49513,530.867188 L1087.49513,528.867188 L1088.49513,528.867188 L1093.49513,528.867188 Z M1083.49513,528.867188 L1084.49513,528.867188 L1084.49513,530.867188 L1083.49513,530.867188 L1081,530.867188 C1080.04464,530.867188 1079.1082,530.717953 1078.2165,530.428204 L1077.26545,530.119171 L1077.88351,528.217068 L1078.83456,528.526101 C1079.52727,528.751186 1080.25516,528.867188 1081,528.867188 L1083.49513,528.867188 Z M1075.31791,525.956467 L1075.90282,526.767568 L1074.28062,527.937379 L1073.69571,527.126278 C1072.59966,525.606356 1072,523.780598 1072,521.867188 L1072,521.849643 L1072,520.849643 L1074,520.849643 L1074,521.849643 L1074,521.867188 C1074,523.357145 1074.46548,524.774379 1075.31791,525.956467 Z M1074,516.849643 L1074,517.849643 L1072,517.849643 L1072,516.849643 L1072,511.849643 L1072,510.849643 L1074,510.849643 L1074,511.849643 L1074,516.849643 Z M1074,506.849643 L1074,507.849643 L1072,507.849643 L1072,506.849643 L1072,501.849643 L1072,500.849643 L1074,500.849643 L1074,501.849643 L1074,506.849643 Z M1074,496.849643 L1074,497.849643 L1072,497.849643 L1072,496.849643 L1072,491.849643 L1072,490.849643 L1074,490.849643 L1074,491.849643 L1074,496.849643 Z M1074,486.849643 L1074,487.849643 L1072,487.849643 L1072,486.849643 L1072,481.849643 L1072,480.849643 L1074,480.849643 L1074,481.849643 L1074,486.849643 Z M1074,476.849643 L1074,477.849643 L1072,477.849643 L1072,476.849643 L1072,471.849643 L1072,470.849643 L1074,470.849643 L1074,471.849643 L1074,476.849643 Z" fill-opacity="0.5" fill="#8E44AD" fill-rule="nonzero"></path>
            <text id="Actions-Copy" font-family="Helvetica" font-size="24" font-weight="normal" fill="#8E44AD" fill-opacity="0.5">
                <tspan x="1294" y="521">ACTIONS</tspan>
            </text>
        </g>
    </g>
</svg>